{
    "asset" : {
        "generator" : "Khronos glTF Blender I/O v3.4.50",
        "version" : "2.0"
    },
    "extensionsUsed" : [
        "KHR_materials_specular",
        "KHR_materials_ior"
    ],
    "scene" : 0,
    "scenes" : [
        {
            "name" : "Scene",
            "nodes" : [
                0
            ]
        }
    ],
    "nodes" : [
        {
            "mesh" : 0,
            "name" : "Cube",
            "rotation" : [
                0,
                0.7071068286895752,
                0,
                0.7071068286895752
            ],
            "scale" : [
                0.5771105885505676,
                1.1456389427185059,
                0.5771105885505676
            ],
            "translation" : [
                -0.5061928033828735,
                1.631611704826355,
                0.1486230492591858
            ]
        }
    ],
    "materials" : [
        {
            "doubleSided" : true,
            "extensions" : {
                "KHR_materials_specular" : {
                    "specularColorFactor" : [
                        0.39881920817221245,
                        0.39881920817221245,
                        0.39881920817221245
                    ]
                },
                "KHR_materials_ior" : {
                    "ior" : 1.4500000476837158
                }
            },
            "name" : "Brown",
            "pbrMetallicRoughness" : {
                "baseColorFactor" : [
                    0.20863687992095947,
                    0.05951116234064102,
                    0.03433983027935028,
                    1
                ],
                "metallicFactor" : 0,
                "roughnessFactor" : 0.7409090995788574
            }
        },
        {
            "doubleSided" : true,
            "name" : "Greyer White",
            "pbrMetallicRoughness" : {
                "baseColorFactor" : [
                    0.5186812877655029,
                    0.5186812877655029,
                    0.5186812877655029,
                    1
                ],
                "metallicFactor" : 0,
                "roughnessFactor" : 0.5
            }
        },
        {
            "doubleSided" : true,
            "extensions" : {
                "KHR_materials_specular" : {
                    "specularColorFactor" : [
                        0.905427437367378,
                        0.905427437367378,
                        0.905427437367378
                    ]
                },
                "KHR_materials_ior" : {
                    "ior" : 1.4500000476837158
                }
            },
            "name" : "Black",
            "pbrMetallicRoughness" : {
                "baseColorFactor" : [
                    0.003676503198221326,
                    0.003676503663882613,
                    0.003676507156342268,
                    1
                ],
                "metallicFactor" : 0.6590909361839294,
                "roughnessFactor" : 0.7363636493682861
            }
        },
        {
            "doubleSided" : true,
            "name" : "Dark Brown",
            "pbrMetallicRoughness" : {
                "baseColorFactor" : [
                    0.05496889725327492,
                    0.02403135970234871,
                    0.01759514771401882,
                    1
                ],
                "metallicFactor" : 0,
                "roughnessFactor" : 0.5
            }
        }
    ],
    "meshes" : [
        {
            "name" : "Cube",
            "primitives" : [
                {
                    "attributes" : {
                        "POSITION" : 0,
                        "TEXCOORD_0" : 1,
                        "NORMAL" : 2
                    },
                    "indices" : 3,
                    "material" : 0
                },
                {
                    "attributes" : {
                        "POSITION" : 4,
                        "TEXCOORD_0" : 5,
                        "NORMAL" : 6
                    },
                    "indices" : 7,
                    "material" : 1
                },
                {
                    "attributes" : {
                        "POSITION" : 8,
                        "TEXCOORD_0" : 9,
                        "NORMAL" : 10
                    },
                    "indices" : 11,
                    "material" : 2
                },
                {
                    "attributes" : {
                        "POSITION" : 12,
                        "TEXCOORD_0" : 13,
                        "NORMAL" : 14
                    },
                    "indices" : 15,
                    "material" : 3
                }
            ]
        }
    ],
    "accessors" : [
        {
            "bufferView" : 0,
            "componentType" : 5126,
            "count" : 3108,
            "max" : [
                1.077738642692566,
                1.3096554279327393,
                3.0610411167144775
            ],
            "min" : [
                -1.077738642692566,
                -1.3712536096572876,
                -4.300806999206543
            ],
            "type" : "VEC3"
        },
        {
            "bufferView" : 1,
            "componentType" : 5126,
            "count" : 3108,
            "type" : "VEC2"
        },
        {
            "bufferView" : 2,
            "componentType" : 5126,
            "count" : 3108,
            "type" : "VEC3"
        },
        {
            "bufferView" : 3,
            "componentType" : 5123,
            "count" : 4632,
            "type" : "SCALAR"
        },
        {
            "bufferView" : 4,
            "componentType" : 5126,
            "count" : 326,
            "max" : [
                0.33416748046875,
                1.3341509103775024,
                2.419142484664917
            ],
            "min" : [
                -0.33416748046875,
                -0.5047510862350464,
                -4.31834077835083
            ],
            "type" : "VEC3"
        },
        {
            "bufferView" : 5,
            "componentType" : 5126,
            "count" : 326,
            "type" : "VEC2"
        },
        {
            "bufferView" : 6,
            "componentType" : 5126,
            "count" : 326,
            "type" : "VEC3"
        },
        {
            "bufferView" : 7,
            "componentType" : 5123,
            "count" : 486,
            "type" : "SCALAR"
        },
        {
            "bufferView" : 8,
            "componentType" : 5126,
            "count" : 576,
            "max" : [
                0.7471449971199036,
                1.119300365447998,
                2.4194085597991943
            ],
            "min" : [
                -0.7471449971199036,
                -1.4246137142181396,
                -4.3318352699279785
            ],
            "type" : "VEC3"
        },
        {
            "bufferView" : 9,
            "componentType" : 5126,
            "count" : 576,
            "type" : "VEC2"
        },
        {
            "bufferView" : 10,
            "componentType" : 5126,
            "count" : 576,
            "type" : "VEC3"
        },
        {
            "bufferView" : 11,
            "componentType" : 5123,
            "count" : 864,
            "type" : "SCALAR"
        },
        {
            "bufferView" : 12,
            "componentType" : 5126,
            "count" : 80,
            "max" : [
                0.8424659371376038,
                1.1216697692871094,
                -2.825409173965454
            ],
            "min" : [
                -0.8424659371376038,
                1.016535997390747,
                -2.9281699657440186
            ],
            "type" : "VEC3"
        },
        {
            "bufferView" : 13,
            "componentType" : 5126,
            "count" : 80,
            "type" : "VEC2"
        },
        {
            "bufferView" : 14,
            "componentType" : 5126,
            "count" : 80,
            "type" : "VEC3"
        },
        {
            "bufferView" : 15,
            "componentType" : 5123,
            "count" : 120,
            "type" : "SCALAR"
        }
    ],
    "bufferViews" : [
        {
            "buffer" : 0,
            "byteLength" : 37296,
            "byteOffset" : 0,
            "target" : 34962
        },
        {
            "buffer" : 0,
            "byteLength" : 24864,
            "byteOffset" : 37296,
            "target" : 34962
        },
        {
            "buffer" : 0,
            "byteLength" : 37296,
            "byteOffset" : 62160,
            "target" : 34962
        },
        {
            "buffer" : 0,
            "byteLength" : 9264,
            "byteOffset" : 99456,
            "target" : 34963
        },
        {
            "buffer" : 0,
            "byteLength" : 3912,
            "byteOffset" : 108720,
            "target" : 34962
        },
        {
            "buffer" : 0,
            "byteLength" : 2608,
            "byteOffset" : 112632,
            "target" : 34962
        },
        {
            "buffer" : 0,
            "byteLength" : 3912,
            "byteOffset" : 115240,
            "target" : 34962
        },
        {
            "buffer" : 0,
            "byteLength" : 972,
            "byteOffset" : 119152,
            "target" : 34963
        },
        {
            "buffer" : 0,
            "byteLength" : 6912,
            "byteOffset" : 120124,
            "target" : 34962
        },
        {
            "buffer" : 0,
            "byteLength" : 4608,
            "byteOffset" : 127036,
            "target" : 34962
        },
        {
            "buffer" : 0,
            "byteLength" : 6912,
            "byteOffset" : 131644,
            "target" : 34962
        },
        {
            "buffer" : 0,
            "byteLength" : 1728,
            "byteOffset" : 138556,
            "target" : 34963
        },
        {
            "buffer" : 0,
            "byteLength" : 960,
            "byteOffset" : 140284,
            "target" : 34962
        },
        {
            "buffer" : 0,
            "byteLength" : 640,
            "byteOffset" : 141244,
            "target" : 34962
        },
        {
            "buffer" : 0,
            "byteLength" : 960,
            "byteOffset" : 141884,
            "target" : 34962
        },
        {
            "buffer" : 0,
            "byteLength" : 240,
            "byteOffset" : 142844,
            "target" : 34963
        }
    ],
    "buffers" : [
        {
            "byteLength" : 143084,
            "uri" : "data:application/octet-stream;base64,"
        }
    ]
}
