{"accessors":[{"bufferView":2,"componentType":5126,"count":1791,"max":[1.9135279655456543,3.4905428886413574,4.22565221786499],"min":[-1.9110980033874512,-1.8232580423355103,-0.01361900009214878],"type":"VEC3"},{"bufferView":2,"byteOffset":21492,"componentType":5126,"count":1791,"max":[0.9993927478790283,0.9862373471260071,1],"min":[-0.9993926286697388,-0.9984188675880432,-0.9240797758102417],"type":"VEC3"},{"bufferView":1,"componentType":5126,"count":1791,"max":[0.17160700261592865,0.7310940027236938],"min":[0.011537999846041203,0.7084310054779053],"type":"VEC2"},{"bufferView":0,"componentType":5125,"count":1854,"type":"SCALAR"}],"asset":{"extras":{"author":"Alok (https://sketchfab.com/alok.aks50)","license":"CC-BY-4.0 (http://creativecommons.org/licenses/by/4.0/)","source":"https://sketchfab.com/3d-models/statue-a77d9a22ca964a71ab23519cab124ff6","title":"Statue"},"generator":"Sketchfab-12.68.0","version":"2.0"},"bufferViews":[{"buffer":0,"byteLength":7416,"name":"floatBufferViews","target":34963},{"buffer":0,"byteLength":14328,"byteOffset":7416,"byteStride":8,"name":"floatBufferViews","target":34962},{"buffer":0,"byteLength":42984,"byteOffset":21744,"byteStride":12,"name":"floatBufferViews","target":34962}],"buffers":[{"byteLength":64728,"uri":"data:application/octet-stream;base64,"}],"images":[{"uri":"data:application/octet-stream;base64,"}],"materials":[{"doubleSided":true,"name":"Scene_-_Root","pbrMetallicRoughness":{"baseColorTexture":{"index":0},"metallicFactor":0}}],"meshes":[{"name":"Object_0","primitives":[{"attributes":{"NORMAL":1,"POSITION":0,"TEXCOORD_0":2},"indices":3,"material":0,"mode":4}]}],"nodes":[{"children":[1],"matrix":[1,0,0,0,0,2.220446049250313e-16,-1,0,0,1,2.220446049250313e-16,0,0,0,0,1],"name":"Sketchfab_model"},{"children":[2],"name":"6e9bc0aeee2b487ea04d65daa35a0230.obj.cleaner.materialmerger.gles"},{"mesh":0,"name":"Object_2"}],"samplers":[{"magFilter":9729,"minFilter":9987,"wrapS":10497,"wrapT":10497}],"scene":0,"scenes":[{"name":"Sketchfab_Scene","nodes":[0]}],"textures":[{"sampler":0,"source":0}]}